<mxfile host="www.draw.io" modified="2020-03-02T08:20:24.046Z" agent="Mozilla/5.0 (X11; Linux x86_64) AppleWebKit/537.36 (KHTML, like Gecko) Chrome/78.0.3904.97 Safari/537.36" etag="LMr7r_wxLNZ1dOKbP7vv" version="12.7.9" type="github">
  <diagram id="prtHgNgQTEPvFCAcTncT" name="Page-1">
    <mxGraphModel dx="980" dy="558" grid="1" gridSize="10" guides="1" tooltips="1" connect="1" arrows="1" fold="1" page="1" pageScale="1" pageWidth="827" pageHeight="1169" math="0" shadow="0">
      <root>
        <mxCell id="0" />
        <mxCell id="1" parent="0" />
        <mxCell id="wuPDPI4p4FArpflH-Ycf-1" value="Binary" style="html=1;whiteSpace=wrap;;fontSize=11;fontColor=#000000;spacing=5;strokeOpacity=100;strokeWidth=1.2;" vertex="1" parent="1">
          <mxGeometry x="156" y="132" width="72" height="48" as="geometry" />
        </mxCell>
        <mxCell id="wuPDPI4p4FArpflH-Ycf-2" value="" style="html=1;whiteSpace=wrap;ellipse;shape=cloud;fontSize=11;spacing=5;strokeOpacity=100;strokeWidth=1.2;" vertex="1" parent="1">
          <mxGeometry x="260" y="30" width="340" height="240" as="geometry" />
        </mxCell>
        <mxCell id="wuPDPI4p4FArpflH-Ycf-3" value="api-server" style="html=1;whiteSpace=wrap;;fontSize=11;fontColor=#000000;spacing=5;strokeOpacity=100;strokeWidth=1.2;" vertex="1" parent="1">
          <mxGeometry x="300" y="138" width="84" height="36" as="geometry" />
        </mxCell>
        <mxCell id="wuPDPI4p4FArpflH-Ycf-4" value="Cluster" style="html=1;whiteSpace=wrap;;fontSize=11;fontColor=#000000;spacing=5;strokeOpacity=0;fillOpacity=0;fillColor=#ffffff;strokeWidth=1.2;" vertex="1" parent="1">
          <mxGeometry x="276" y="96" width="144" height="36" as="geometry" />
        </mxCell>
        <mxCell id="wuPDPI4p4FArpflH-Ycf-5" value="" style="html=1;jettySize=18;fontSize=11;strokeOpacity=100;strokeWidth=1.2;rounded=1;arcSize=0;edgeStyle=orthogonalEdgeStyle;startArrow=none;;endArrow=block;endFill=1;;exitX=1.0083333333333333;exitY=0.5;exitPerimeter=1;entryX=-0.007142857142857143;entryY=0.5;entryPerimeter=1;" edge="1" parent="1" source="wuPDPI4p4FArpflH-Ycf-1" target="wuPDPI4p4FArpflH-Ycf-3">
          <mxGeometry width="100" height="100" relative="1" as="geometry" />
        </mxCell>
        <mxCell id="wuPDPI4p4FArpflH-Ycf-6" value="Lightweight Pod" style="html=1;whiteSpace=wrap;rounded=1;arcSize=50;fontSize=11;fontColor=#000000;spacing=5;strokeOpacity=100;strokeWidth=1.2;" vertex="1" parent="1">
          <mxGeometry x="432" y="192" width="72" height="36" as="geometry" />
        </mxCell>
        <mxCell id="wuPDPI4p4FArpflH-Ycf-7" value="CoreDNS Pod2" style="html=1;whiteSpace=wrap;rounded=1;arcSize=50;fontSize=11;fontColor=#000000;spacing=5;strokeOpacity=100;strokeWidth=1.2;" vertex="1" parent="1">
          <mxGeometry x="468" y="84" width="72" height="36" as="geometry" />
        </mxCell>
        <mxCell id="wuPDPI4p4FArpflH-Ycf-8" value="CoreDNS Pod1" style="html=1;whiteSpace=wrap;rounded=1;arcSize=50;fontSize=11;fontColor=#000000;spacing=5;strokeOpacity=100;strokeWidth=1.2;" vertex="1" parent="1">
          <mxGeometry x="390" y="84" width="72" height="36" as="geometry" />
        </mxCell>
        <mxCell id="wuPDPI4p4FArpflH-Ycf-9" value="" style="html=1;jettySize=18;fontSize=11;strokeOpacity=100;strokeWidth=1.2;rounded=1;arcSize=0;edgeStyle=orthogonalEdgeStyle;startArrow=none;;endArrow=block;endFill=1;;exitX=0.5;exitY=1.0166666666666666;exitPerimeter=1;entryX=-0.00833851848772973;entryY=0.5;entryPerimeter=1;" edge="1" parent="1" source="wuPDPI4p4FArpflH-Ycf-3" target="wuPDPI4p4FArpflH-Ycf-6">
          <mxGeometry width="100" height="100" relative="1" as="geometry" />
        </mxCell>
        <mxCell id="wuPDPI4p4FArpflH-Ycf-10" value="creates " style="text;html=1;resizable=0;labelBackgroundColor=#ffffff;align=center;verticalAlign=middle;" vertex="1" parent="wuPDPI4p4FArpflH-Ycf-9">
          <mxGeometry x="0.219589826224855" relative="1" as="geometry" />
        </mxCell>
        <mxCell id="wuPDPI4p4FArpflH-Ycf-11" value="Service IP" style="html=1;whiteSpace=wrap;;fontSize=11;fontColor=#000000;spacing=5;strokeOpacity=0;fillOpacity=0;fillColor=#ffffff;strokeWidth=1.2;" vertex="1" parent="1">
          <mxGeometry x="396" y="144" width="144" height="24" as="geometry" />
        </mxCell>
        <mxCell id="wuPDPI4p4FArpflH-Ycf-12" value="" style="html=1;whiteSpace=wrap;shape=doubleArrow;arrowWidth=0.5;arrowSize=0.3;fontSize=11;spacing=5;strokeOpacity=100;rotation=90;strokeWidth=1.2;" vertex="1" parent="1">
          <mxGeometry x="456" y="174" width="18" height="6" as="geometry" />
        </mxCell>
        <mxCell id="wuPDPI4p4FArpflH-Ycf-13" value="" style="html=1;whiteSpace=wrap;shape=doubleArrow;arrowWidth=0.5;arrowSize=0.3;fontSize=11;spacing=5;strokeOpacity=100;rotation=-256.96137727132987;strokeWidth=1.2;" vertex="1" parent="1">
          <mxGeometry x="473" y="152" width="61" height="7" as="geometry" />
        </mxCell>
        <mxCell id="wuPDPI4p4FArpflH-Ycf-14" value="dig the ClusterIP and Pod IPs" style="html=1;whiteSpace=wrap;;fontSize=11;fontColor=#000000;spacing=5;strokeOpacity=0;fillOpacity=0;fillColor=#ffffff;strokeWidth=1.2;" vertex="1" parent="1">
          <mxGeometry x="510" y="159" width="72" height="48" as="geometry" />
        </mxCell>
      </root>
    </mxGraphModel>
  </diagram>
</mxfile>
